# xmcd
#
# Track frame offsets:
# 150
# 23280
# 47246
# 67987
# 89494
# 109225
# 134027
#
# Disc length: 2013 seconds
#
#
# Revision: 1
# Processed by: cddbd v1.5.2PL0 Copyright (c) Steve Scherf et al.
# Submitted via: FreeRIP 2.945 
#
DISCID=5b07db07
DTITLE=L.T.D. - Love To The World
DYEAR=1900
DGENRE=
TTITLE0=Love To The World
TTITLE1=Time For Pleasure
TTITLE2=Love Ballad
TTITLE3=Get Your It Together
TTITLE4=Let The Music Keep Playing
TTITLE5=The Word
TTITLE6=Love To The World Prayer
EXTD=
EXTT0=
EXTT1=
EXTT2=
EXTT3=
EXTT4=
EXTT5=
EXTT6=
PLAYORDER=
